<svg width="24" height="24" viewBox="0 0 24 24" fill="none" xmlns="http://www.w3.org/2000/svg">
<path fill-rule="evenodd" clip-rule="evenodd" d="M24 4.63678V6.79188C24 6.80007 24 7.20007 23.6 7.20007H0.4C0 7.20007 0 6.80007 0 6.79188V4.63678C0 3.83861 0.653617 3.20007 1.47064 3.20007H22.5294C23.3464 3.20007 24 3.83861 24 4.63678ZM1.37874 20.0001C0.612784 20.0001 1.76196e-05 19.3741 1.76196e-05 18.5915V9.26971C1.76196e-05 9.00884 0.204273 8.80015 0.459592 8.80015H23.5404C23.7958 8.80015 24 9.00884 24 9.26971V18.5915C24 19.3741 23.3873 20.0001 22.6213 20.0001H1.37874ZM3.24323 17.6002H11.9567C12.4065 17.6002 12.8 17.2269 12.8 16.8002C12.8 16.3735 12.4065 16.0002 11.9567 16.0002H3.24323C2.7935 16.0002 2.39999 16.3735 2.39999 16.8002C2.39999 17.2269 2.7935 17.6002 3.24323 17.6002Z" fill="#F1AE23"/>
</svg>
