<svg width="24" height="24" viewBox="0 0 24 24" fill="none" xmlns="http://www.w3.org/2000/svg">
<path fill-rule="evenodd" clip-rule="evenodd" d="M12.1366 23.0112L12.8678 18.375L12.9149 18.1181C12.9501 17.8946 13.0646 17.6903 13.2369 17.5431C13.4092 17.396 13.629 17.3148 13.8556 17.3148H14.4362C15.4039 17.3148 16.293 17.2114 17.0789 17.0075C17.9174 16.7902 18.6632 16.4517 19.2953 16.0021C19.9656 15.5254 20.5286 14.9092 20.9689 14.1709C21.4333 13.3921 21.7743 12.4544 21.9826 11.3842C22.1667 10.4392 22.2011 9.59315 22.0855 8.86933C21.963 8.10469 21.6685 7.45226 21.2101 6.92963C20.9322 6.61306 20.5765 6.33879 20.1531 6.11439L20.1431 6.10901L20.1429 6.09679C20.2908 5.15346 20.2851 4.36657 20.126 3.68921C19.9661 3.01037 19.6425 2.39949 19.1357 1.8221C18.0858 0.625766 16.1762 0.019043 13.4601 0.019043H6.00066C5.75132 0.019043 5.50932 0.108267 5.31962 0.270337C5.12993 0.432407 5.00428 0.657545 4.96517 0.90395L1.85918 20.6C1.83083 20.7796 1.8824 20.9622 2.00072 21.1001C2.11903 21.2387 2.29113 21.3182 2.473 21.3182H7.10069L7.09653 21.3402L6.77875 23.3554C6.7543 23.5121 6.79928 23.671 6.9022 23.7913C7.00511 23.9118 7.15496 23.9812 7.31336 23.9812H11.1947C11.4126 23.9812 11.6235 23.9032 11.789 23.7617C11.9545 23.6201 12.0645 23.4238 12.0985 23.209L12.1366 23.0112Z" fill="#27346A"/>
<path fill-rule="evenodd" clip-rule="evenodd" d="M9.47689 6.12223C9.52603 5.81007 9.72623 5.55462 9.99586 5.42531C10.1186 5.36664 10.2555 5.33388 10.399 5.33388H16.246C16.9387 5.33388 17.5846 5.37935 18.1752 5.47444C18.3438 5.50158 18.5079 5.53287 18.6675 5.56831C18.8271 5.60376 18.9819 5.64311 19.1317 5.68711C19.2068 5.70887 19.2803 5.73185 19.3529 5.75605C19.6429 5.85236 19.9127 5.96579 20.1611 6.0973C20.4539 4.23044 20.1591 2.96004 19.1493 1.80941C18.0375 0.542678 16.0291 7.61386e-10 13.4595 7.61386e-10H6.00007C5.47499 7.61386e-10 5.02789 0.382074 4.946 0.900796L1.84001 20.5968C1.77865 20.9855 2.07908 21.3368 2.4724 21.3368H7.07736L9.47689 6.12223Z" fill="#27346A"/>
<path fill-rule="evenodd" clip-rule="evenodd" d="M20.1604 6.09753C20.1382 6.24005 20.1135 6.38501 20.0841 6.53437C19.1007 11.5849 15.7351 13.331 11.4367 13.331H9.24789C8.72281 13.331 8.27938 13.7134 8.19749 14.2321L6.7589 23.3527C6.70536 23.6925 6.96815 24 7.31209 24H11.1937C11.653 24 12.0442 23.6659 12.1158 23.2119L12.1539 23.0147L12.8851 18.3779L12.9323 18.1218C13.0039 17.6678 13.395 17.3336 13.8543 17.3336H14.4349C18.1953 17.3336 21.1397 15.8058 22.0001 11.3877C22.3595 9.54158 22.1737 8.00057 21.223 6.91717C20.9356 6.58961 20.5777 6.31852 20.1604 6.09753Z" fill="#2790C3"/>
<path fill-rule="evenodd" clip-rule="evenodd" d="M19.1308 5.68708C18.981 5.64308 18.8262 5.60372 18.6666 5.56827C18.507 5.53283 18.3429 5.50154 18.1743 5.47441C17.5837 5.37931 16.9378 5.33385 16.2451 5.33385H10.3981C10.2546 5.33385 10.1177 5.3666 9.99495 5.42527C9.72533 5.55459 9.52512 5.81004 9.47599 6.1222L8.2332 14.0018L8.19727 14.2318C8.27916 13.7131 8.72259 13.3308 9.24767 13.3308H11.4365C15.7349 13.3308 19.1005 11.5847 20.0839 6.5341C20.1133 6.38474 20.1379 6.23978 20.1602 6.09727C19.9118 5.96575 19.6419 5.85233 19.352 5.75601C19.2794 5.73181 19.2058 5.70883 19.1308 5.68708Z" fill="#1F264F"/>
</svg>
